HIERARCHY
ROOT Hips
{
	OFFSET -341.196167 -577.024780 88.986252
	CHANNELS 6 Xposition Yposition Zposition Zrotation Yrotation Xrotation
	JOINT Spine
	{
		OFFSET 0.000000 2.080078 8.814247
		CHANNELS 6 Xposition Yposition Zposition Zrotation Yrotation Xrotation
		JOINT Spine1
		{
			OFFSET 0.000000 0.000000 8.844139
			CHANNELS 6 Xposition Yposition Zposition Zrotation Yrotation Xrotation
			JOINT Spine2
			{
				OFFSET 0.000000 0.000000 11.682266
				CHANNELS 6 Xposition Yposition Zposition Zrotation Yrotation Xrotation
				JOINT Spine3
				{
					OFFSET 0.000000 0.000000 11.746704
					CHANNELS 6 Xposition Yposition Zposition Zrotation Yrotation Xrotation
					JOINT Neck
					{
						OFFSET 0.000000 0.000000 17.658264
						CHANNELS 6 Xposition Yposition Zposition Zrotation Yrotation Xrotation
						JOINT Neck1
						{
							OFFSET 0.000000 0.000000 5.101517
							CHANNELS 6 Xposition Yposition Zposition Zrotation Yrotation Xrotation
							JOINT Head
							{
								OFFSET 0.000000 0.000000 5.101517
								CHANNELS 6 Xposition Yposition Zposition Zrotation Yrotation Xrotation
								JOINT HeadEnd
								{
									OFFSET 0.000000 0.000000 11.655090
									CHANNELS 6 Xposition Yposition Zposition Zrotation Yrotation Xrotation
									End Site
									{
										OFFSET 0.000000 0.000000 0.100006
									}
								}
							}
						}
					}
					JOINT RightShoulder
					{
						OFFSET -2.625397 0.000000 11.175217
						CHANNELS 6 Xposition Yposition Zposition Zrotation Yrotation Xrotation
						JOINT RightArm
						{
							OFFSET 0.000000 0.000000 10.434723
							CHANNELS 6 Xposition Yposition Zposition Zrotation Yrotation Xrotation
							JOINT RightForeArm
							{
								OFFSET 0.000000 0.000000 29.628418
								CHANNELS 6 Xposition Yposition Zposition Zrotation Yrotation Xrotation
								JOINT RightHand
								{
									OFFSET 0.000000 0.000000 22.857605
									CHANNELS 6 Xposition Yposition Zposition Zrotation Yrotation Xrotation
									JOINT RightHandThumb1
									{
										OFFSET -2.867310 -2.944275 3.959564
										CHANNELS 6 Xposition Yposition Zposition Zrotation Yrotation Xrotation
										JOINT RightHandThumb2
										{
											OFFSET 0.000000 0.000000 3.350403
											CHANNELS 6 Xposition Yposition Zposition Zrotation Yrotation Xrotation
											JOINT RightHandThumb3
											{
												OFFSET 0.000000 0.000000 3.756516
												CHANNELS 6 Xposition Yposition Zposition Zrotation Yrotation Xrotation
												JOINT RightHandThumb4
												{
													OFFSET 0.000000 0.000000 3.147339
													CHANNELS 6 Xposition Yposition Zposition Zrotation Yrotation Xrotation
													End Site
													{
														OFFSET 0.000000 0.000000 0.100006
													}
												}
											}
										}
									}
									JOINT RightHandIndex1
									{
										OFFSET -0.086761 -2.345276 10.030899
										CHANNELS 6 Xposition Yposition Zposition Zrotation Yrotation Xrotation
										JOINT RightHandIndex2
										{
											OFFSET 0.000000 0.000000 4.061096
											CHANNELS 6 Xposition Yposition Zposition Zrotation Yrotation Xrotation
											JOINT RightHandIndex3
											{
												OFFSET 0.000000 0.000000 3.248871
												CHANNELS 6 Xposition Yposition Zposition Zrotation Yrotation Xrotation
												JOINT RightHandIndex4
												{
													OFFSET 0.000000 0.000000 2.639709
													CHANNELS 6 Xposition Yposition Zposition Zrotation Yrotation Xrotation
													End Site
													{
														OFFSET 0.000000 0.000000 0.100006
													}
												}
											}
										}
									}
									JOINT RightHandMiddle1
									{
										OFFSET 0.104095 -0.006775 9.502945
										CHANNELS 6 Xposition Yposition Zposition Zrotation Yrotation Xrotation
										JOINT RightHandMiddle2
										{
											OFFSET 0.000000 0.000000 4.568726
											CHANNELS 6 Xposition Yposition Zposition Zrotation Yrotation Xrotation
											JOINT RightHandMiddle3
											{
												OFFSET 0.000000 0.000000 3.654984
												CHANNELS 6 Xposition Yposition Zposition Zrotation Yrotation Xrotation
												JOINT RightHandMiddle4
												{
													OFFSET 0.000000 0.000000 2.741241
													CHANNELS 6 Xposition Yposition Zposition Zrotation Yrotation Xrotation
													End Site
													{
														OFFSET 0.000000 0.000000 0.100006
													}
												}
											}
										}
									}
									JOINT RightHandRing1
									{
										OFFSET 0.086761 2.267456 8.921707
										CHANNELS 6 Xposition Yposition Zposition Zrotation Yrotation Xrotation
										JOINT RightHandRing2
										{
											OFFSET 0.000000 0.000000 4.061096
											CHANNELS 6 Xposition Yposition Zposition Zrotation Yrotation Xrotation
											JOINT RightHandRing3
											{
												OFFSET 0.000000 0.000000 3.654984
												CHANNELS 6 Xposition Yposition Zposition Zrotation Yrotation Xrotation
												JOINT RightHandRing4
												{
													OFFSET 0.000000 0.000000 2.741241
													CHANNELS 6 Xposition Yposition Zposition Zrotation Yrotation Xrotation
													End Site
													{
														OFFSET 0.000000 0.000000 0.100006
													}
												}
											}
										}
									}
									JOINT RightHandPinky1
									{
										OFFSET -0.173492 4.467224 7.976990
										CHANNELS 6 Xposition Yposition Zposition Zrotation Yrotation Xrotation
										JOINT RightHandPinky2
										{
											OFFSET 0.000000 0.000000 3.350403
											CHANNELS 6 Xposition Yposition Zposition Zrotation Yrotation Xrotation
											JOINT RightHandPinky3
											{
												OFFSET 0.000000 0.000000 2.842758
												CHANNELS 6 Xposition Yposition Zposition Zrotation Yrotation Xrotation
												JOINT RightHandPinky4
												{
													OFFSET 0.000000 0.000000 2.639709
													CHANNELS 6 Xposition Yposition Zposition Zrotation Yrotation Xrotation
													End Site
													{
														OFFSET 0.000000 0.000000 0.100006
													}
												}
											}
										}
									}
									JOINT RightForeArmEnd
									{
										OFFSET 0.000000 0.000000 0.000000
										CHANNELS 6 Xposition Yposition Zposition Zrotation Yrotation Xrotation
										End Site
										{
											OFFSET 0.000000 0.000000 0.100006
										}
									}
								}
								JOINT RightArmEnd
								{
									OFFSET 0.000000 0.000000 0.000000
									CHANNELS 6 Xposition Yposition Zposition Zrotation Yrotation Xrotation
									End Site
									{
										OFFSET 0.000000 0.000000 0.100006
									}
								}
							}
						}
					}
					JOINT LeftShoulder
					{
						OFFSET 2.625397 0.000000 11.175217
						CHANNELS 6 Xposition Yposition Zposition Zrotation Yrotation Xrotation
						JOINT LeftArm
						{
							OFFSET 0.000000 0.000000 10.813629
							CHANNELS 6 Xposition Yposition Zposition Zrotation Yrotation Xrotation
							JOINT LeftForeArm
							{
								OFFSET 0.000000 0.000000 28.724777
								CHANNELS 6 Xposition Yposition Zposition Zrotation Yrotation Xrotation
								JOINT LeftHand
								{
									OFFSET 0.644379 0.328857 25.716171
									CHANNELS 6 Xposition Yposition Zposition Zrotation Yrotation Xrotation
									JOINT LeftHandThumb1
									{
										OFFSET 2.867310 -2.944275 3.959564
										CHANNELS 6 Xposition Yposition Zposition Zrotation Yrotation Xrotation
										JOINT LeftHandThumb2
										{
											OFFSET 0.000000 0.000000 3.350403
											CHANNELS 6 Xposition Yposition Zposition Zrotation Yrotation Xrotation
											JOINT LeftHandThumb3
											{
												OFFSET 0.000000 0.000000 3.756516
												CHANNELS 6 Xposition Yposition Zposition Zrotation Yrotation Xrotation
												JOINT LeftHandThumb4
												{
													OFFSET 0.000000 0.000000 3.100006
													CHANNELS 6 Xposition Yposition Zposition Zrotation Yrotation Xrotation
													End Site
													{
														OFFSET 0.000000 0.000000 0.100006
													}
												}
											}
										}
									}
									JOINT LeftHandIndex1
									{
										OFFSET 0.086761 -2.345276 10.030899
										CHANNELS 6 Xposition Yposition Zposition Zrotation Yrotation Xrotation
										JOINT LeftHandIndex2
										{
											OFFSET 0.000000 0.000000 4.061096
											CHANNELS 6 Xposition Yposition Zposition Zrotation Yrotation Xrotation
											JOINT LeftHandIndex3
											{
												OFFSET 0.000000 0.000000 3.248871
												CHANNELS 6 Xposition Yposition Zposition Zrotation Yrotation Xrotation
												JOINT LeftHandIndex4
												{
													OFFSET 0.000000 0.000000 2.639709
													CHANNELS 6 Xposition Yposition Zposition Zrotation Yrotation Xrotation
													End Site
													{
														OFFSET 0.000000 0.000000 0.100006
													}
												}
											}
										}
									}
									JOINT LeftHandMiddle1
									{
										OFFSET -0.104095 -0.006775 9.502945
										CHANNELS 6 Xposition Yposition Zposition Zrotation Yrotation Xrotation
										JOINT LeftHandMiddle2
										{
											OFFSET 0.000000 0.000000 4.568726
											CHANNELS 6 Xposition Yposition Zposition Zrotation Yrotation Xrotation
											JOINT LeftHandMiddle3
											{
												OFFSET 0.000000 0.000000 3.654984
												CHANNELS 6 Xposition Yposition Zposition Zrotation Yrotation Xrotation
												JOINT LeftHandMiddle4
												{
													OFFSET 0.000000 0.000000 2.741241
													CHANNELS 6 Xposition Yposition Zposition Zrotation Yrotation Xrotation
													End Site
													{
														OFFSET 0.000000 0.000000 0.100006
													}
												}
											}
										}
									}
									JOINT LeftHandRing1
									{
										OFFSET -0.086761 2.267456 8.921707
										CHANNELS 6 Xposition Yposition Zposition Zrotation Yrotation Xrotation
										JOINT LeftHandRing2
										{
											OFFSET 0.000000 0.000000 4.061096
											CHANNELS 6 Xposition Yposition Zposition Zrotation Yrotation Xrotation
											JOINT LeftHandRing3
											{
												OFFSET 0.000000 0.000000 3.654984
												CHANNELS 6 Xposition Yposition Zposition Zrotation Yrotation Xrotation
												JOINT LeftHandRing4
												{
													OFFSET 0.000000 0.000000 2.741241
													CHANNELS 6 Xposition Yposition Zposition Zrotation Yrotation Xrotation
													End Site
													{
														OFFSET 0.000000 0.000000 0.100006
													}
												}
											}
										}
									}
									JOINT LeftHandPinky1
									{
										OFFSET 0.173492 4.467224 7.976990
										CHANNELS 6 Xposition Yposition Zposition Zrotation Yrotation Xrotation
										JOINT LeftHandPinky2
										{
											OFFSET 0.000000 0.000000 3.350403
											CHANNELS 6 Xposition Yposition Zposition Zrotation Yrotation Xrotation
											JOINT LeftHandPinky3
											{
												OFFSET 0.000000 0.000000 2.842758
												CHANNELS 6 Xposition Yposition Zposition Zrotation Yrotation Xrotation
												JOINT LeftHandPinky4
												{
													OFFSET 0.000000 0.000000 2.639709
													CHANNELS 6 Xposition Yposition Zposition Zrotation Yrotation Xrotation
													End Site
													{
														OFFSET 0.000000 0.000000 0.100006
													}
												}
											}
										}
									}
									JOINT LeftForeArmEnd
									{
										OFFSET 0.000000 0.000000 0.000000
										CHANNELS 6 Xposition Yposition Zposition Zrotation Yrotation Xrotation
										End Site
										{
											OFFSET 0.000000 0.000000 0.100006
										}
									}
								}
								JOINT LeftArmEnd
								{
									OFFSET 0.000000 0.000000 0.000000
									CHANNELS 6 Xposition Yposition Zposition Zrotation Yrotation Xrotation
									End Site
									{
										OFFSET 0.000000 0.000000 0.100006
									}
								}
							}
						}
					}
				}
			}
		}
	}
	JOINT RightUpLeg
	{
		OFFSET -11.289948 0.000000 0.000000
		CHANNELS 6 Xposition Yposition Zposition Zrotation Yrotation Xrotation
		JOINT RightLeg
		{
			OFFSET 0.000000 0.000000 -38.200329
			CHANNELS 6 Xposition Yposition Zposition Zrotation Yrotation Xrotation
			JOINT RightFoot
			{
				OFFSET 0.000000 0.000000 -39.900856
				CHANNELS 6 Xposition Yposition Zposition Zrotation Yrotation Xrotation
				JOINT RightToeBase
				{
					OFFSET 0.000000 -15.261658 0.000001
					CHANNELS 6 Xposition Yposition Zposition Zrotation Yrotation Xrotation
					JOINT RightToeBaseEnd
					{
						OFFSET 0.000000 -7.370728 0.000000
						CHANNELS 6 Xposition Yposition Zposition Zrotation Yrotation Xrotation
						End Site
						{
							OFFSET 0.000000 0.000000 0.100000
						}
					}
				}
				JOINT RightLegEnd
				{
					OFFSET 0.000000 0.000000 0.000000
					CHANNELS 6 Xposition Yposition Zposition Zrotation Yrotation Xrotation
					End Site
					{
						OFFSET 0.000000 0.000000 0.100000
					}
				}
			}
			JOINT RightUpLegEnd
			{
				OFFSET 0.000000 0.000000 0.000000
				CHANNELS 6 Xposition Yposition Zposition Zrotation Yrotation Xrotation
				End Site
				{
					OFFSET 0.000000 0.000000 0.099998
				}
			}
		}
	}
	JOINT LeftUpLeg
	{
		OFFSET 11.315674 0.000000 0.000000
		CHANNELS 6 Xposition Yposition Zposition Zrotation Yrotation Xrotation
		JOINT LeftLeg
		{
			OFFSET 0.000000 0.000000 -38.200329
			CHANNELS 6 Xposition Yposition Zposition Zrotation Yrotation Xrotation
			JOINT LeftFoot
			{
				OFFSET 0.000000 0.000000 -39.900856
				CHANNELS 6 Xposition Yposition Zposition Zrotation Yrotation Xrotation
				JOINT LeftToeBase
				{
					OFFSET 0.000000 -15.261658 0.000001
					CHANNELS 6 Xposition Yposition Zposition Zrotation Yrotation Xrotation
					JOINT LeftToeBaseEnd
					{
						OFFSET 0.000000 -7.539978 0.000000
						CHANNELS 6 Xposition Yposition Zposition Zrotation Yrotation Xrotation
						End Site
						{
							OFFSET 0.000000 0.000000 0.100000
						}
					}
				}
				JOINT LeftLegEnd
				{
					OFFSET 0.000000 0.000000 0.000000
					CHANNELS 6 Xposition Yposition Zposition Zrotation Yrotation Xrotation
					End Site
					{
						OFFSET 0.000000 0.000000 0.100000
					}
				}
			}
			JOINT LeftUpLegEnd
			{
				OFFSET 0.000000 0.000000 0.000000
				CHANNELS 6 Xposition Yposition Zposition Zrotation Yrotation Xrotation
				End Site
				{
					OFFSET 0.000000 0.000000 0.099998
				}
			}
		}
	}
}
MOTION
Frames: 2
Frame Time: 0.016667
-26.583984 -22.956116 89.546822 8.865050 -0.067730 -2.163546 -0.000012 2.080072 8.814252 -0.026202 1.078942 3.175180 0.000001 0.000026 8.844166 0.237417 3.104582 -0.632973 -0.000022 0.000027 11.682252 -7.388111 -1.990987 0.313989 -0.000001 0.000021 11.746694 -2.859999 -2.315661 1.683635 0.000010 0.000004 17.658295 6.703194 -12.395707 11.384141 -0.000007 -0.000002 5.101536 12.654494 -4.154076 -0.322228 -0.000013 0.000015 5.101512 -0.186130 1.117211 -19.721403 0.000002 -0.000006 11.655087 0.000001 -0.000002 -0.000001 -2.625391 -0.000031 11.175211 2.923602 -84.172396 -0.080321 -0.000038 0.000027 10.434738 27.636387 -23.369479 -18.617468 0.000027 -0.000008 29.628454 16.244961 0.832991 107.378203 -0.000013 -0.000081 22.857616 -0.602250 49.840348 2.167747 -2.867317 -2.944260 3.959557 31.863840 -15.721437 53.915966 -0.000011 0.000031 3.350391 -9.281731 6.858946 -17.127662 -0.000015 0.000015 3.756489 -6.223697 5.062944 -11.762342 -0.000010 -0.000003 3.147336 -0.000000 -0.000001 -0.000000 -0.086757 -2.345272 10.030915 -8.600348 0.165735 8.772686 -0.000001 -0.000013 4.061095 0.498561 -0.792197 0.111548 0.000011 -0.000026 3.248877 -0.000997 -0.794140 0.111480 0.000001 0.000000 2.639726 -0.000000 0.000000 0.000000 0.104096 -0.006792 9.502932 -3.507455 0.235379 6.865453 -0.000003 -0.000024 4.568745 0.496458 -0.145081 0.006908 0.000007 0.000012 3.654998 0.184907 -0.127334 0.006725 -0.000001 0.000002 2.741242 -0.000000 0.000000 -0.000000 0.086766 2.267439 8.921711 4.575647 0.186132 3.817608 0.000002 0.000029 4.061104 -0.995052 0.000015 -0.000002 0.000010 -0.000008 3.654992 0.001728 0.000001 0.000004 0.000000 0.000001 2.741235 -0.000000 -0.000000 0.000001 -0.173497 4.467261 7.976987 13.281419 1.181435 2.058462 -0.000001 -0.000027 3.350403 -2.003204 -0.000012 -0.000023 0.000012 0.000008 2.842783 0.001733 0.000009 0.000006 0.000009 -0.000003 2.639713 0.000000 0.000000 -0.000000 -0.000004 0.000005 0.000002 -0.000001 0.000000 -0.000000 0.000003 0.000003 0.000004 -0.000000 0.000003 0.000001 2.625385 -0.000031 11.175231 -4.083834 82.936235 -0.263314 0.000008 0.000008 10.813614 -45.691534 24.340178 -38.114047 0.000013 0.000031 28.724697 -19.108860 2.004062 97.509065 0.644310 0.328899 25.716156 -5.554513 -30.321231 -8.027165 2.867271 -2.944275 3.959549 -32.315503 13.910434 56.898525 0.000008 -0.000017 3.350412 5.383810 -4.498524 -10.250590 0.000038 0.000017 3.756535 3.652143 -3.227388 -7.069959 -0.000015 -0.000011 3.099997 0.000002 0.000001 -0.000000 0.086739 -2.345295 10.030869 -10.864293 -11.360147 13.248233 0.000030 -0.000010 4.061103 0.607040 0.000114 0.000242 0.000006 0.000018 3.248887 0.258840 -0.000006 0.002127 0.000004 -0.000006 2.639740 0.000000 -0.000002 -0.000001 -0.104073 -0.006802 9.502937 -5.743329 -11.769584 11.934585 -0.000002 -0.000068 4.568717 0.617744 0.153030 0.097535 0.000011 -0.000037 3.654965 0.093759 -0.084677 0.081782 0.000005 -0.000004 2.741224 -0.000000 -0.000001 -0.000000 -0.086769 2.267424 8.921684 2.600997 -11.515882 9.089153 -0.000036 0.000005 4.061088 -1.054839 0.000118 -0.029574 -0.000039 -0.000022 3.654984 -0.110785 -0.000031 -0.024551 -0.000005 0.000013 2.741241 0.000000 -0.000000 0.000003 0.173492 4.467178 7.976959 11.428985 -11.112012 7.766701 -0.000017 -0.000061 3.350420 -2.010922 -0.000018 -0.014164 -0.000030 -0.000067 2.842793 -0.009267 0.000002 -0.019348 -0.000039 -0.000048 2.639732 -0.000000 0.000000 -0.000001 0.000002 0.000001 -0.000009 -0.000000 -0.000000 0.000001 -0.000007 -0.000008 0.000014 0.000001 0.000000 -0.000001 -11.289930 0.000014 0.000001 -13.806815 -1.380760 7.909613 0.000008 0.000092 -38.200336 -0.652086 0.054772 5.838061 0.000008 -0.000028 -39.900856 -9.594064 1.814850 21.099076 -0.000008 -15.261649 0.000004 -0.007857 1.655661 -22.112773 -0.000038 -7.370675 0.000002 0.000001 0.000000 0.000001 0.000003 -0.000005 0.000000 0.000001 -0.000001 -0.000000 0.000004 0.000002 -0.000001 -0.000000 -0.000000 -0.000000 11.315676 0.000025 0.000003 -4.872383 1.406847 4.672448 0.000024 -0.000034 -38.200336 0.509233 -0.086204 7.858704 0.000009 -0.000015 -39.900856 1.936336 -2.777663 20.381599 -0.000014 -15.261739 -0.000007 -0.220878 -0.853842 -20.996447 -0.000037 -7.539979 0.000000 0.000000 -0.000000 0.000001 -0.000029 0.000060 -0.000001 0.000000 -0.000000 0.000002 0.000002 -0.000000 -0.000002 0.000000 0.000000 -0.000000 
-26.638611 -22.939514 89.686432 8.497302 -0.021020 -1.643036 0.000008 2.080051 8.814255 -0.018155 0.867086 2.720594 0.000010 -0.000010 8.844142 0.247029 2.833593 -0.883902 -0.000007 -0.000016 11.682274 -6.763827 -1.696426 0.049329 -0.000012 -0.000030 11.746707 -2.587812 -1.878160 1.521651 0.000015 -0.000031 17.658257 6.590955 -12.458910 12.072502 0.000003 -0.000027 5.101537 12.546585 -4.232998 -0.018714 -0.000024 0.000025 5.101529 -0.221710 1.058421 -19.613037 -0.000012 0.000014 11.655074 -0.000002 -0.000002 -0.000001 -2.625397 0.000017 11.175242 3.131350 -82.771101 -0.063945 0.000000 0.000011 10.434731 31.073970 -20.624601 -20.352126 0.000011 -0.000015 29.628407 16.506265 0.816270 108.693889 -0.000015 -0.000021 22.857622 -10.485475 51.856958 -4.369523 -2.867287 -2.944275 3.959526 31.897752 -15.552995 54.185223 -0.000004 0.000023 3.350437 -8.915174 6.663872 -16.494658 -0.000002 0.000011 3.756506 -5.983504 4.904831 -11.331904 -0.000012 0.000001 3.147323 -0.000001 -0.000001 -0.000004 -0.086740 -2.345276 10.030911 -8.289807 1.935466 8.548886 -0.000002 -0.000025 4.061073 0.501669 -0.000165 -0.000004 0.000011 -0.000020 3.248874 0.002349 -0.000001 0.000005 -0.000001 0.000002 2.639712 -0.000000 0.000000 -0.000000 0.104103 -0.006811 9.502940 -3.190199 2.047622 7.076029 -0.000015 0.000011 4.568725 0.496649 -0.000143 0.002033 0.000010 0.000017 3.654982 0.185037 -0.000002 0.001685 -0.000034 -0.000001 2.741228 0.000000 0.000000 0.000000 0.086754 2.267458 8.921711 4.925177 2.103408 4.860297 0.000002 -0.000002 4.061112 -0.995144 -0.000001 0.000007 0.000007 -0.000021 3.654985 0.001592 0.000017 -0.000002 -0.000005 0.000000 2.741241 -0.000000 0.000000 0.000000 -0.173501 4.467234 7.976957 13.632770 2.762221 4.189959 0.000013 -0.000027 3.350397 -2.007547 -0.000311 0.000034 0.000007 0.000030 2.842768 0.000629 -0.000008 0.001740 -0.000007 0.000059 2.639721 0.000000 -0.000001 -0.000000 0.000000 -0.000003 -0.000020 -0.000000 0.000000 0.000001 -0.000005 0.000057 0.000007 0.000000 0.000001 -0.000000 2.625389 0.000008 11.175220 -3.932525 82.497757 -0.270571 -0.000031 0.000019 10.813667 -46.131074 21.679635 -34.753543 0.000007 0.000061 28.724792 -18.356670 2.070016 99.380987 0.644349 0.328905 25.716164 5.350088 -35.579108 -11.761050 2.867287 -2.944275 3.959625 -32.315510 13.910446 56.898471 0.000002 0.000029 3.350449 5.383828 -4.498549 -10.250584 -0.000010 0.000029 3.756516 3.652146 -3.227410 -7.069922 0.000000 -0.000015 3.099986 0.000003 0.000001 -0.000000 0.086754 -2.345284 10.030930 -10.939564 -11.713318 13.847059 0.000006 0.000008 4.061077 0.606533 0.000150 0.000241 -0.000006 -0.000018 3.248855 0.257823 0.000001 0.002190 -0.000003 0.000007 2.639703 0.000000 -0.000001 0.000000 -0.104107 -0.006817 9.502960 -5.796564 -12.050692 12.668626 -0.000009 -0.000084 4.568718 0.617288 -0.027825 0.094495 -0.000040 0.000028 3.654970 0.093580 0.015281 0.081017 -0.000010 0.000004 2.741244 -0.000001 0.000001 -0.000001 -0.086761 2.267479 8.921715 2.510984 -12.052857 9.900379 -0.000015 0.000019 4.061099 -1.055171 0.000183 -0.032030 -0.000016 -0.000007 3.654999 -0.110945 -0.000047 -0.026706 0.000006 0.000003 2.741246 -0.000001 0.000001 0.000001 0.173496 4.467197 7.976997 11.326685 -11.834307 8.659170 -0.000043 -0.000086 3.350435 -2.012732 0.000000 -0.016013 -0.000018 -0.000065 2.842787 -0.010803 -0.000000 -0.021561 -0.000042 -0.000063 2.639709 0.000000 -0.000001 0.000001 0.000002 -0.000010 0.000020 -0.000000 0.000000 -0.000003 0.000007 -0.000002 0.000001 0.000000 0.000004 -0.000001 -11.289917 0.000030 -0.000003 -13.881863 -1.496556 7.302901 0.000014 -0.000005 -38.200340 -0.653895 0.054546 5.826905 0.000002 -0.000018 -39.900860 -9.037898 1.862224 21.779255 -0.000011 -15.261676 -0.000021 -0.087325 1.628474 -22.689053 0.000002 -7.370728 -0.000000 0.000000 -0.000000 -0.000001 0.000008 -0.000004 -0.000002 0.000001 0.000002 0.000004 -0.000004 0.000000 -0.000004 -0.000000 -0.000000 -0.000000 11.315701 0.000033 0.000009 -5.168313 1.320292 4.115651 0.000006 0.000014 -38.200333 0.521829 -0.087052 7.857795 -0.000012 0.000007 -39.900848 2.371376 -2.670905 20.926506 -0.000005 -15.261712 0.000006 -0.205959 -0.862341 -21.347920 -0.000033 -7.539920 -0.000001 0.000001 0.000000 0.000000 -0.000030 0.000064 0.000001 -0.000000 -0.000000 -0.000001 -0.000002 -0.000003 -0.000014 0.000000 0.000000 -0.000000 
